<mxfile host="app.diagrams.net" modified="2020-10-19T15:50:54.179Z" agent="5.0 (Windows NT 10.0; Win64; x64) AppleWebKit/537.36 (KHTML, like Gecko) Chrome/86.0.4240.75 Safari/537.36" etag="clk92QztIEFg3a56kMpA" version="13.8.0" type="github" pages="3">
  <diagram id="C5RBs43oDa-KdzZeNtuy" name="Page-1">
    <mxGraphModel dx="847" dy="412" grid="1" gridSize="10" guides="1" tooltips="1" connect="1" arrows="1" fold="1" page="1" pageScale="1" pageWidth="827" pageHeight="1169" math="0" shadow="0">
      <root>
        <mxCell id="WIyWlLk6GJQsqaUBKTNV-0" />
        <mxCell id="WIyWlLk6GJQsqaUBKTNV-1" parent="WIyWlLk6GJQsqaUBKTNV-0" />
        <mxCell id="Wi7lCZhTlXyHsakPtHtF-3" style="edgeStyle=orthogonalEdgeStyle;rounded=0;orthogonalLoop=1;jettySize=auto;html=1;exitX=0.5;exitY=0;exitDx=0;exitDy=0;" parent="WIyWlLk6GJQsqaUBKTNV-1" source="zkfFHV4jXpPFQw0GAbJ--0" edge="1">
          <mxGeometry relative="1" as="geometry">
            <mxPoint x="300" y="90" as="targetPoint" />
          </mxGeometry>
        </mxCell>
        <mxCell id="zkfFHV4jXpPFQw0GAbJ--0" value="Fish" style="swimlane;fontStyle=2;align=center;verticalAlign=top;childLayout=stackLayout;horizontal=1;startSize=26;horizontalStack=0;resizeParent=1;resizeLast=0;collapsible=1;marginBottom=0;rounded=0;shadow=0;strokeWidth=1;" parent="WIyWlLk6GJQsqaUBKTNV-1" vertex="1">
          <mxGeometry x="190" y="80" width="180" height="180" as="geometry">
            <mxRectangle x="230" y="140" width="160" height="26" as="alternateBounds" />
          </mxGeometry>
        </mxCell>
        <mxCell id="zkfFHV4jXpPFQw0GAbJ--1" value="-color: String" style="text;align=left;verticalAlign=top;spacingLeft=4;spacingRight=4;overflow=hidden;rotatable=0;points=[[0,0.5],[1,0.5]];portConstraint=eastwest;" parent="zkfFHV4jXpPFQw0GAbJ--0" vertex="1">
          <mxGeometry y="26" width="180" height="26" as="geometry" />
        </mxCell>
        <mxCell id="Wi7lCZhTlXyHsakPtHtF-8" value="" style="line;html=1;strokeWidth=1;align=left;verticalAlign=middle;spacingTop=-1;spacingLeft=3;spacingRight=3;rotatable=0;labelPosition=right;points=[];portConstraint=eastwest;" parent="zkfFHV4jXpPFQw0GAbJ--0" vertex="1">
          <mxGeometry y="52" width="180" height="8" as="geometry" />
        </mxCell>
        <mxCell id="zkfFHV4jXpPFQw0GAbJ--2" value="+swim() : void" style="text;align=left;verticalAlign=top;spacingLeft=4;spacingRight=4;overflow=hidden;rotatable=0;points=[[0,0.5],[1,0.5]];portConstraint=eastwest;rounded=0;shadow=0;html=0;" parent="zkfFHV4jXpPFQw0GAbJ--0" vertex="1">
          <mxGeometry y="60" width="180" height="28" as="geometry" />
        </mxCell>
        <mxCell id="zkfFHV4jXpPFQw0GAbJ--3" value="+setColor (warna : string) :void" style="text;align=left;verticalAlign=top;spacingLeft=4;spacingRight=4;overflow=hidden;rotatable=0;points=[[0,0.5],[1,0.5]];portConstraint=eastwest;rounded=0;shadow=0;html=0;" parent="zkfFHV4jXpPFQw0GAbJ--0" vertex="1">
          <mxGeometry y="88" width="180" height="26" as="geometry" />
        </mxCell>
        <mxCell id="Wi7lCZhTlXyHsakPtHtF-4" value="+getColor() : string" style="text;html=1;align=left;verticalAlign=middle;resizable=0;points=[];autosize=1;" parent="zkfFHV4jXpPFQw0GAbJ--0" vertex="1">
          <mxGeometry y="114" width="180" height="20" as="geometry" />
        </mxCell>
        <mxCell id="Wi7lCZhTlXyHsakPtHtF-12" value="" style="endArrow=block;endSize=10;endFill=0;shadow=0;strokeWidth=1;rounded=0;edgeStyle=elbowEdgeStyle;elbow=vertical;exitX=-0.023;exitY=0.077;exitDx=0;exitDy=0;exitPerimeter=0;" parent="WIyWlLk6GJQsqaUBKTNV-1" source="zkfFHV4jXpPFQw0GAbJ--19" edge="1">
          <mxGeometry width="160" relative="1" as="geometry">
            <mxPoint x="430" y="200" as="sourcePoint" />
            <mxPoint x="368" y="181" as="targetPoint" />
            <Array as="points">
              <mxPoint x="440" y="181" />
            </Array>
          </mxGeometry>
        </mxCell>
        <mxCell id="Wi7lCZhTlXyHsakPtHtF-13" value="Extends" style="edgeLabel;html=1;align=center;verticalAlign=middle;resizable=0;points=[];" parent="Wi7lCZhTlXyHsakPtHtF-12" vertex="1" connectable="0">
          <mxGeometry x="0.0357" y="3" relative="1" as="geometry">
            <mxPoint as="offset" />
          </mxGeometry>
        </mxCell>
        <mxCell id="zkfFHV4jXpPFQw0GAbJ--17" value="Shark" style="swimlane;fontStyle=0;align=center;verticalAlign=top;childLayout=stackLayout;horizontal=1;startSize=26;horizontalStack=0;resizeParent=1;resizeLast=0;collapsible=1;marginBottom=0;rounded=0;shadow=0;strokeWidth=1;" parent="WIyWlLk6GJQsqaUBKTNV-1" vertex="1">
          <mxGeometry x="530" y="120" width="222" height="190" as="geometry">
            <mxRectangle x="508" y="120" width="160" height="26" as="alternateBounds" />
          </mxGeometry>
        </mxCell>
        <mxCell id="zkfFHV4jXpPFQw0GAbJ--18" value="- sharpTeeth : int" style="text;align=left;verticalAlign=top;spacingLeft=4;spacingRight=4;overflow=hidden;rotatable=0;points=[[0,0.5],[1,0.5]];portConstraint=eastwest;" parent="zkfFHV4jXpPFQw0GAbJ--17" vertex="1">
          <mxGeometry y="26" width="222" height="26" as="geometry" />
        </mxCell>
        <mxCell id="zkfFHV4jXpPFQw0GAbJ--23" value="" style="line;html=1;strokeWidth=1;align=left;verticalAlign=middle;spacingTop=-1;spacingLeft=3;spacingRight=3;rotatable=0;labelPosition=right;points=[];portConstraint=eastwest;" parent="zkfFHV4jXpPFQw0GAbJ--17" vertex="1">
          <mxGeometry y="52" width="222" height="8" as="geometry" />
        </mxCell>
        <mxCell id="zkfFHV4jXpPFQw0GAbJ--19" value="+eat() : void" style="text;align=left;verticalAlign=top;spacingLeft=4;spacingRight=4;overflow=hidden;rotatable=0;points=[[0,0.5],[1,0.5]];portConstraint=eastwest;rounded=0;shadow=0;html=0;" parent="zkfFHV4jXpPFQw0GAbJ--17" vertex="1">
          <mxGeometry y="60" width="222" height="26" as="geometry" />
        </mxCell>
        <mxCell id="zkfFHV4jXpPFQw0GAbJ--20" value="+setSharpTeeth ( teeth : int ) : void" style="text;align=left;verticalAlign=top;spacingLeft=4;spacingRight=4;overflow=hidden;rotatable=0;points=[[0,0.5],[1,0.5]];portConstraint=eastwest;rounded=0;shadow=0;html=0;" parent="zkfFHV4jXpPFQw0GAbJ--17" vertex="1">
          <mxGeometry y="86" width="222" height="26" as="geometry" />
        </mxCell>
        <mxCell id="zkfFHV4jXpPFQw0GAbJ--21" value="+swim()" style="text;align=left;verticalAlign=top;spacingLeft=4;spacingRight=4;overflow=hidden;rotatable=0;points=[[0,0.5],[1,0.5]];portConstraint=eastwest;rounded=0;shadow=0;html=0;" parent="zkfFHV4jXpPFQw0GAbJ--17" vertex="1">
          <mxGeometry y="112" width="222" height="26" as="geometry" />
        </mxCell>
        <mxCell id="zkfFHV4jXpPFQw0GAbJ--22" value="+swim ( fin : int )Â " style="text;align=left;verticalAlign=top;spacingLeft=4;spacingRight=4;overflow=hidden;rotatable=0;points=[[0,0.5],[1,0.5]];portConstraint=eastwest;rounded=0;shadow=0;html=0;" parent="zkfFHV4jXpPFQw0GAbJ--17" vertex="1">
          <mxGeometry y="138" width="222" height="26" as="geometry" />
        </mxCell>
        <mxCell id="Wi7lCZhTlXyHsakPtHtF-9" value="+swim (eyes : int , tail : int ) :void" style="text;html=1;align=left;verticalAlign=middle;resizable=0;points=[];autosize=1;" parent="zkfFHV4jXpPFQw0GAbJ--17" vertex="1">
          <mxGeometry y="164" width="222" height="20" as="geometry" />
        </mxCell>
        <mxCell id="Wi7lCZhTlXyHsakPtHtF-14" value="" style="endArrow=diamondThin;endFill=0;endSize=24;html=1;" parent="WIyWlLk6GJQsqaUBKTNV-1" edge="1">
          <mxGeometry width="160" relative="1" as="geometry">
            <mxPoint x="268" y="260" as="sourcePoint" />
            <mxPoint x="268" y="369" as="targetPoint" />
          </mxGeometry>
        </mxCell>
        <mxCell id="Wi7lCZhTlXyHsakPtHtF-15" value="have" style="edgeLabel;html=1;align=center;verticalAlign=middle;resizable=0;points=[];" parent="Wi7lCZhTlXyHsakPtHtF-14" vertex="1" connectable="0">
          <mxGeometry x="-0.2522" y="-1" relative="1" as="geometry">
            <mxPoint as="offset" />
          </mxGeometry>
        </mxCell>
        <mxCell id="zkfFHV4jXpPFQw0GAbJ--6" value="Aquirium" style="swimlane;fontStyle=0;align=center;verticalAlign=top;childLayout=stackLayout;horizontal=1;startSize=26;horizontalStack=0;resizeParent=1;resizeLast=0;collapsible=1;marginBottom=0;rounded=0;shadow=0;strokeWidth=1;" parent="WIyWlLk6GJQsqaUBKTNV-1" vertex="1">
          <mxGeometry x="180" y="370" width="160" height="138" as="geometry">
            <mxRectangle x="130" y="380" width="160" height="26" as="alternateBounds" />
          </mxGeometry>
        </mxCell>
        <mxCell id="zkfFHV4jXpPFQw0GAbJ--7" value="+ length, height, width : int" style="text;align=left;verticalAlign=top;spacingLeft=4;spacingRight=4;overflow=hidden;rotatable=0;points=[[0,0.5],[1,0.5]];portConstraint=eastwest;" parent="zkfFHV4jXpPFQw0GAbJ--6" vertex="1">
          <mxGeometry y="26" width="160" height="26" as="geometry" />
        </mxCell>
        <mxCell id="zkfFHV4jXpPFQw0GAbJ--8" value="+ height : int" style="text;align=left;verticalAlign=top;spacingLeft=4;spacingRight=4;overflow=hidden;rotatable=0;points=[[0,0.5],[1,0.5]];portConstraint=eastwest;rounded=0;shadow=0;html=0;" parent="zkfFHV4jXpPFQw0GAbJ--6" vertex="1">
          <mxGeometry y="52" width="160" height="26" as="geometry" />
        </mxCell>
        <mxCell id="Wi7lCZhTlXyHsakPtHtF-5" value="+ width : int" style="text;html=1;align=left;verticalAlign=middle;resizable=0;points=[];autosize=1;" parent="zkfFHV4jXpPFQw0GAbJ--6" vertex="1">
          <mxGeometry y="78" width="160" height="20" as="geometry" />
        </mxCell>
        <mxCell id="Wi7lCZhTlXyHsakPtHtF-6" value="&lt;span&gt;+ fillFish() : void&lt;/span&gt;" style="text;html=1;align=left;verticalAlign=middle;resizable=0;points=[];autosize=1;" parent="zkfFHV4jXpPFQw0GAbJ--6" vertex="1">
          <mxGeometry y="98" width="160" height="20" as="geometry" />
        </mxCell>
      </root>
    </mxGraphModel>
  </diagram>
  <diagram id="YKpwLMgchnM0ZOZF_c1i" name="Page-2">
    <mxGraphModel dx="847" dy="412" grid="1" gridSize="10" guides="1" tooltips="1" connect="1" arrows="1" fold="1" page="1" pageScale="1" pageWidth="827" pageHeight="1169" math="0" shadow="0">
      <root>
        <mxCell id="q5znj9y8HrVKojNdb-e9-0" />
        <mxCell id="q5znj9y8HrVKojNdb-e9-1" parent="q5znj9y8HrVKojNdb-e9-0" />
        <mxCell id="q5znj9y8HrVKojNdb-e9-2" value="Book&amp;nbsp;" style="html=1;" parent="q5znj9y8HrVKojNdb-e9-1" vertex="1">
          <mxGeometry x="350" y="240" width="110" height="30" as="geometry" />
        </mxCell>
        <mxCell id="q5znj9y8HrVKojNdb-e9-3" value="Publisher" style="html=1;" parent="q5znj9y8HrVKojNdb-e9-1" vertex="1">
          <mxGeometry x="590" y="240" width="110" height="30" as="geometry" />
        </mxCell>
        <mxCell id="q5znj9y8HrVKojNdb-e9-4" value="Library" style="html=1;" parent="q5znj9y8HrVKojNdb-e9-1" vertex="1">
          <mxGeometry x="80" y="240" width="110" height="30" as="geometry" />
        </mxCell>
        <mxCell id="q5znj9y8HrVKojNdb-e9-5" value="Owner" style="html=1;" parent="q5znj9y8HrVKojNdb-e9-1" vertex="1">
          <mxGeometry x="80" y="359" width="110" height="30" as="geometry" />
        </mxCell>
        <mxCell id="ZH2n-JVqnNyNugSYbrFq-16" style="edgeStyle=orthogonalEdgeStyle;rounded=0;orthogonalLoop=1;jettySize=auto;html=1;exitX=0.5;exitY=0;exitDx=0;exitDy=0;entryX=0.5;entryY=1;entryDx=0;entryDy=0;endArrow=openThin;endFill=0;" parent="q5znj9y8HrVKojNdb-e9-1" source="q5znj9y8HrVKojNdb-e9-6" target="q5znj9y8HrVKojNdb-e9-2" edge="1">
          <mxGeometry relative="1" as="geometry" />
        </mxCell>
        <mxCell id="q5znj9y8HrVKojNdb-e9-6" value="Mystery category" style="html=1;" parent="q5znj9y8HrVKojNdb-e9-1" vertex="1">
          <mxGeometry x="600" y="359" width="110" height="30" as="geometry" />
        </mxCell>
        <mxCell id="ZH2n-JVqnNyNugSYbrFq-17" style="edgeStyle=orthogonalEdgeStyle;rounded=0;orthogonalLoop=1;jettySize=auto;html=1;exitX=0.5;exitY=0;exitDx=0;exitDy=0;entryX=0.5;entryY=1;entryDx=0;entryDy=0;endArrow=openThin;endFill=0;" parent="q5znj9y8HrVKojNdb-e9-1" source="q5znj9y8HrVKojNdb-e9-7" target="q5znj9y8HrVKojNdb-e9-2" edge="1">
          <mxGeometry relative="1" as="geometry" />
        </mxCell>
        <mxCell id="q5znj9y8HrVKojNdb-e9-7" value="Fiction category" style="html=1;" parent="q5znj9y8HrVKojNdb-e9-1" vertex="1">
          <mxGeometry x="350" y="359" width="110" height="30" as="geometry" />
        </mxCell>
        <mxCell id="q5znj9y8HrVKojNdb-e9-8" value="Author" style="html=1;" parent="q5znj9y8HrVKojNdb-e9-1" vertex="1">
          <mxGeometry x="350" y="110" width="110" height="30" as="geometry" />
        </mxCell>
        <mxCell id="umzomo275NKOV-hNUS5Y-1" value="" style="endArrow=none;html=1;edgeStyle=orthogonalEdgeStyle;entryX=0.5;entryY=0;entryDx=0;entryDy=0;exitX=0.5;exitY=1;exitDx=0;exitDy=0;" parent="q5znj9y8HrVKojNdb-e9-1" source="q5znj9y8HrVKojNdb-e9-8" target="q5znj9y8HrVKojNdb-e9-2" edge="1">
          <mxGeometry relative="1" as="geometry">
            <mxPoint x="405" y="153" as="sourcePoint" />
            <mxPoint x="460" y="250" as="targetPoint" />
          </mxGeometry>
        </mxCell>
        <mxCell id="umzomo275NKOV-hNUS5Y-2" value="1.. *" style="edgeLabel;resizable=0;html=1;align=left;verticalAlign=bottom;" parent="umzomo275NKOV-hNUS5Y-1" connectable="0" vertex="1">
          <mxGeometry x="-1" relative="1" as="geometry">
            <mxPoint x="-25" y="20" as="offset" />
          </mxGeometry>
        </mxCell>
        <mxCell id="umzomo275NKOV-hNUS5Y-3" value="1.. *" style="edgeLabel;resizable=0;html=1;align=right;verticalAlign=bottom;" parent="umzomo275NKOV-hNUS5Y-1" connectable="0" vertex="1">
          <mxGeometry x="1" relative="1" as="geometry">
            <mxPoint x="-5" as="offset" />
          </mxGeometry>
        </mxCell>
        <mxCell id="umzomo275NKOV-hNUS5Y-4" value="wrote" style="text;html=1;align=center;verticalAlign=middle;resizable=0;points=[];autosize=1;" parent="q5znj9y8HrVKojNdb-e9-1" vertex="1">
          <mxGeometry x="410" y="180" width="40" height="20" as="geometry" />
        </mxCell>
        <mxCell id="umzomo275NKOV-hNUS5Y-5" value="" style="endArrow=diamondThin;endFill=1;endSize=24;html=1;entryX=1;entryY=0.5;entryDx=0;entryDy=0;exitX=0;exitY=0.5;exitDx=0;exitDy=0;" parent="q5znj9y8HrVKojNdb-e9-1" source="q5znj9y8HrVKojNdb-e9-2" target="q5znj9y8HrVKojNdb-e9-4" edge="1">
          <mxGeometry width="160" relative="1" as="geometry">
            <mxPoint x="240" y="260" as="sourcePoint" />
            <mxPoint x="400" y="260" as="targetPoint" />
          </mxGeometry>
        </mxCell>
        <mxCell id="ZH2n-JVqnNyNugSYbrFq-11" value="have" style="edgeLabel;html=1;align=center;verticalAlign=middle;resizable=0;points=[];" parent="umzomo275NKOV-hNUS5Y-5" vertex="1" connectable="0">
          <mxGeometry x="-0.1875" y="-2" relative="1" as="geometry">
            <mxPoint as="offset" />
          </mxGeometry>
        </mxCell>
        <mxCell id="umzomo275NKOV-hNUS5Y-6" value="1" style="text;html=1;align=center;verticalAlign=middle;resizable=0;points=[];autosize=1;" parent="q5znj9y8HrVKojNdb-e9-1" vertex="1">
          <mxGeometry x="190" y="260" width="20" height="20" as="geometry" />
        </mxCell>
        <mxCell id="umzomo275NKOV-hNUS5Y-7" value="*" style="text;html=1;align=center;verticalAlign=middle;resizable=0;points=[];autosize=1;" parent="q5znj9y8HrVKojNdb-e9-1" vertex="1">
          <mxGeometry x="330" y="260" width="20" height="20" as="geometry" />
        </mxCell>
        <mxCell id="ZH2n-JVqnNyNugSYbrFq-4" value="" style="endArrow=diamondThin;endFill=1;endSize=24;html=1;entryX=1;entryY=0.5;entryDx=0;entryDy=0;exitX=0;exitY=0.5;exitDx=0;exitDy=0;" parent="q5znj9y8HrVKojNdb-e9-1" source="q5znj9y8HrVKojNdb-e9-3" target="q5znj9y8HrVKojNdb-e9-2" edge="1">
          <mxGeometry width="160" relative="1" as="geometry">
            <mxPoint x="370" y="310" as="sourcePoint" />
            <mxPoint x="530" y="310" as="targetPoint" />
          </mxGeometry>
        </mxCell>
        <mxCell id="ZH2n-JVqnNyNugSYbrFq-15" value="publish by" style="edgeLabel;html=1;align=center;verticalAlign=middle;resizable=0;points=[];" parent="ZH2n-JVqnNyNugSYbrFq-4" vertex="1" connectable="0">
          <mxGeometry x="-0.2154" y="-2" relative="1" as="geometry">
            <mxPoint as="offset" />
          </mxGeometry>
        </mxCell>
        <mxCell id="ZH2n-JVqnNyNugSYbrFq-5" value="1 .. *" style="text;html=1;align=center;verticalAlign=middle;resizable=0;points=[];autosize=1;" parent="q5znj9y8HrVKojNdb-e9-1" vertex="1">
          <mxGeometry x="460" y="230" width="40" height="20" as="geometry" />
        </mxCell>
        <mxCell id="ZH2n-JVqnNyNugSYbrFq-6" value="1" style="text;html=1;align=center;verticalAlign=middle;resizable=0;points=[];autosize=1;" parent="q5znj9y8HrVKojNdb-e9-1" vertex="1">
          <mxGeometry x="570" y="230" width="20" height="20" as="geometry" />
        </mxCell>
        <mxCell id="ZH2n-JVqnNyNugSYbrFq-8" value="" style="endArrow=block;endFill=1;html=1;edgeStyle=orthogonalEdgeStyle;align=left;verticalAlign=top;entryX=0.5;entryY=0;entryDx=0;entryDy=0;exitX=0.5;exitY=1;exitDx=0;exitDy=0;" parent="q5znj9y8HrVKojNdb-e9-1" source="q5znj9y8HrVKojNdb-e9-4" target="q5znj9y8HrVKojNdb-e9-5" edge="1">
          <mxGeometry x="-1" relative="1" as="geometry">
            <mxPoint x="100" y="300" as="sourcePoint" />
            <mxPoint x="260" y="300" as="targetPoint" />
          </mxGeometry>
        </mxCell>
        <mxCell id="ZH2n-JVqnNyNugSYbrFq-12" value="1" style="text;html=1;align=center;verticalAlign=middle;resizable=0;points=[];autosize=1;" parent="q5znj9y8HrVKojNdb-e9-1" vertex="1">
          <mxGeometry x="140" y="270" width="20" height="20" as="geometry" />
        </mxCell>
        <mxCell id="ZH2n-JVqnNyNugSYbrFq-13" value="1" style="text;html=1;align=center;verticalAlign=middle;resizable=0;points=[];autosize=1;" parent="q5znj9y8HrVKojNdb-e9-1" vertex="1">
          <mxGeometry x="140" y="339" width="20" height="20" as="geometry" />
        </mxCell>
        <mxCell id="ZH2n-JVqnNyNugSYbrFq-14" value="has" style="text;html=1;align=center;verticalAlign=middle;resizable=0;points=[];autosize=1;" parent="q5znj9y8HrVKojNdb-e9-1" vertex="1">
          <mxGeometry x="100" y="300" width="30" height="20" as="geometry" />
        </mxCell>
      </root>
    </mxGraphModel>
  </diagram>
  <diagram id="I5jAcGuKwOYD9Fb4z08V" name="Page-3">
    <mxGraphModel dx="847" dy="412" grid="1" gridSize="10" guides="1" tooltips="1" connect="1" arrows="1" fold="1" page="1" pageScale="1" pageWidth="827" pageHeight="1169" math="0" shadow="0">
      <root>
        <mxCell id="1CEg2_Ef5P-5Pp8VUG2q-0" />
        <mxCell id="1CEg2_Ef5P-5Pp8VUG2q-1" parent="1CEg2_Ef5P-5Pp8VUG2q-0" />
        <mxCell id="1CEg2_Ef5P-5Pp8VUG2q-2" value="Book" style="swimlane;fontStyle=1;align=center;verticalAlign=top;childLayout=stackLayout;horizontal=1;startSize=26;horizontalStack=0;resizeParent=1;resizeParentMax=0;resizeLast=0;collapsible=1;marginBottom=0;" parent="1CEg2_Ef5P-5Pp8VUG2q-1" vertex="1">
          <mxGeometry x="320" y="150" width="160" height="110" as="geometry" />
        </mxCell>
        <mxCell id="1CEg2_Ef5P-5Pp8VUG2q-3" value="- ISBN : char" style="text;strokeColor=none;fillColor=none;align=left;verticalAlign=top;spacingLeft=4;spacingRight=4;overflow=hidden;rotatable=0;points=[[0,0.5],[1,0.5]];portConstraint=eastwest;" parent="1CEg2_Ef5P-5Pp8VUG2q-2" vertex="1">
          <mxGeometry y="26" width="160" height="24" as="geometry" />
        </mxCell>
        <mxCell id="1CEg2_Ef5P-5Pp8VUG2q-6" value="- author : string" style="text;html=1;align=left;verticalAlign=middle;resizable=0;points=[];autosize=1;" parent="1CEg2_Ef5P-5Pp8VUG2q-2" vertex="1">
          <mxGeometry y="50" width="160" height="20" as="geometry" />
        </mxCell>
        <mxCell id="1CEg2_Ef5P-5Pp8VUG2q-4" value="" style="line;strokeWidth=1;fillColor=none;align=left;verticalAlign=middle;spacingTop=-1;spacingLeft=3;spacingRight=3;rotatable=0;labelPosition=right;points=[];portConstraint=eastwest;" parent="1CEg2_Ef5P-5Pp8VUG2q-2" vertex="1">
          <mxGeometry y="70" width="160" height="10" as="geometry" />
        </mxCell>
        <mxCell id="1CEg2_Ef5P-5Pp8VUG2q-5" value="# stateCD() : boolean" style="text;strokeColor=none;fillColor=none;align=left;verticalAlign=top;spacingLeft=4;spacingRight=4;overflow=hidden;rotatable=0;points=[[0,0.5],[1,0.5]];portConstraint=eastwest;" parent="1CEg2_Ef5P-5Pp8VUG2q-2" vertex="1">
          <mxGeometry y="80" width="160" height="30" as="geometry" />
        </mxCell>
      </root>
    </mxGraphModel>
  </diagram>
</mxfile>
